<?xml version="1.0" encoding="iso-8859-1"?>
<!-- Generator: Adobe Illustrator 16.0.0, SVG Export Plug-In . SVG Version: 6.00 Build 0)  -->
<!DOCTYPE svg PUBLIC "-//W3C//DTD SVG 1.1//EN" "http://www.w3.org/Graphics/SVG/1.1/DTD/svg11.dtd">
<svg version="1.1" id="Capa_1" xmlns="http://www.w3.org/2000/svg" xmlns:xlink="http://www.w3.org/1999/xlink" x="0px" y="0px"
	 width="70.752px" height="70.752px" viewBox="0 0 70.752 70.752" style="enable-background:new 0 0 70.752 70.752;"
	 xml:space="preserve">
<g>
	<path d="M35.376,0C15.836,0,0,15.836,0,35.376c0,19.539,15.836,35.376,35.376,35.376c19.536,0,35.376-15.833,35.376-35.376
		C70.752,15.834,54.914,0,35.376,0z M27.131,54.933l-2.322-1.216l-2.322,1.216l0.441-2.579l-1.877-1.834l2.597-0.379l1.161-2.35
		l1.163,2.35l2.595,0.379l-1.881,1.834L27.131,54.933z M39.118,59.294l-3.742-1.971l-3.738,1.971l0.713-4.165l-3.022-2.947
		l4.182-0.611l1.868-3.786l1.868,3.786l4.182,0.611l-3.023,2.947L39.118,59.294z M48.27,54.933l-2.322-1.216l-2.319,1.216
		l0.44-2.579L42.19,50.52l2.592-0.379l1.163-2.35l1.163,2.35l2.596,0.379l-1.879,1.834L48.27,54.933z M48.64,28.549
		c0.436,2.76-0.776,4.746-2.836,6.431c-1.551,1.261-1.853,3.087-1.158,4.931c0.474,1.264,2.481,3.978,2.481,3.978H22.948
		c0.022-9.247,10.581-14.814,10.726-15.552c0.231-1.182-0.455-1.701-1.628-1.556c-0.746,0.096-1.535,0.015-2.284-0.123
		c-1.486-0.261-2.761-0.105-3.61,1.333c-0.135,0.227-0.388,0.443-0.635,0.539c-0.995,0.383-3.671-0.606-4.186-1.509
		c-0.765-1.345-0.366-3.106,0.96-4.124c1.502-1.147,3.093-2.194,4.513-3.437c1.411-1.229,2.474-2.833,4.246-3.695l-1.691-1.972
		c3.922-3.721,12.316-2.724,14.977,1C47.523,15.987,51.939,21.459,48.64,28.549z"/>
</g>
<g>
</g>
<g>
</g>
<g>
</g>
<g>
</g>
<g>
</g>
<g>
</g>
<g>
</g>
<g>
</g>
<g>
</g>
<g>
</g>
<g>
</g>
<g>
</g>
<g>
</g>
<g>
</g>
<g>
</g>
</svg>
